<svg width="287" height="24" viewBox="0 0 287 24" fill="none" xmlns="http://www.w3.org/2000/svg">
<path fill-rule="evenodd" clip-rule="evenodd" d="M206.66 22.1462L204.243 22.6334V23.7198H215.535V22.6334L213.042 22.1462C213.004 22.1379 212.967 22.1299 212.931 22.1223C212.164 21.9581 212.06 21.9359 212.06 21.4343V1.79872H213.76C215.497 1.79872 216.668 1.91103 218.065 2.73521C218.707 3.74688 219.539 5.88297 219.878 7.49421H220.936L220.671 0.0375865C220.105 0.299787 218.367 0.486813 217.575 0.486813H202.581C201.184 0.486813 199.862 0.299787 199.106 0L198.842 7.45708H199.862C200.24 5.84538 200.957 3.74688 201.674 2.69808C202.317 2.28553 204.054 1.79872 206.358 1.79872H207.679V21.4343C207.679 21.9369 207.576 21.9582 206.771 22.1233C206.735 22.1306 206.698 22.1382 206.66 22.1462ZM234.992 15.4596C234.992 11.8736 233.648 8.1843 229.873 8.1843C226.15 8.1843 224.78 11.8736 224.78 15.4596C224.78 19.0714 226.124 23.0449 229.873 23.0449C233.623 23.0449 234.992 19.0714 234.992 15.4596ZM221.495 15.4599C221.495 11.0481 224.882 7.25589 229.872 7.25589C234.862 7.25589 238.275 11.0227 238.275 15.4599C238.275 19.9233 234.888 23.9993 229.872 23.9993C224.882 23.9993 221.495 19.8975 221.495 15.4599ZM266.313 17.8696L263.736 10.9317L261.292 17.8696H266.313ZM256.454 22.9698L257.637 22.6851C257.979 22.6073 258.163 22.4518 258.294 22.0898L263.973 7.25589H265.445L271.097 22.1157C271.202 22.4 271.412 22.6073 271.754 22.711L272.674 22.9698V23.7202H266.05V22.9698L267.443 22.6851C267.89 22.5814 268.021 22.4263 267.863 22.012L266.733 19.0086H260.923L259.845 22.1157C259.714 22.5041 259.898 22.6073 260.213 22.6851L261.58 22.9698V23.7202H256.454V22.9698ZM274.84 22.9627L276.6 22.5972C277.151 22.4931 277.308 22.3885 277.308 22.0753V17.0104L272.187 9.2053C271.924 8.81365 271.82 8.70954 271.452 8.57839L270.717 8.31744V7.53458H277.256V8.31744L276.048 8.60498L275.97 8.62301C275.575 8.71393 275.381 8.75869 275.627 9.12688L279.724 15.3924L283.375 9.2053C283.637 8.76137 283.427 8.65681 282.745 8.52656L281.589 8.29175V7.53458H286.658V8.29175L285.896 8.50042C285.476 8.60498 285.24 8.70954 284.977 9.15302L280.328 16.5146V22.0753C280.328 22.4408 280.407 22.4665 281.011 22.5972L282.797 22.9627V23.7199H274.84V22.9627ZM253.233 15.5234C253.233 20.0917 250.93 22.8591 247.474 22.8591H246.951C246.139 22.8591 245.301 22.7284 244.856 22.572V8.68347C245.249 8.50094 246.034 8.34409 246.558 8.34409H247.107C251.819 8.34409 253.233 11.8425 253.233 15.5234ZM241.113 22.6494L239.673 22.9627V23.7199H248.18C253.233 23.7199 256.453 20.0133 256.453 15.4183C256.453 10.3276 252.396 7.53458 247.553 7.53458H239.673V8.29132L241.139 8.60456C241.741 8.73526 241.819 8.81323 241.819 9.15262V22.1275C241.819 22.493 241.741 22.5192 241.113 22.6494Z" fill="#9FA1A2"/>
<path fill-rule="evenodd" clip-rule="evenodd" d="M125.554 17.3195V4.4461L141.291 24H142.536V6.51025C142.536 5.29972 142.613 4.22392 142.671 3.42137C142.694 3.10442 142.714 2.83009 142.724 2.60691C142.724 1.96921 143.026 1.81908 143.479 1.74379L145.706 1.36869V0.280151H136.724V1.36869L139.781 1.81908C140.309 1.89437 140.461 2.26946 140.498 2.71985C140.611 3.54533 140.725 5.00897 140.725 6.58554V16.9439L127.328 0.280151H120.762V1.40589L122.611 1.81908C122.664 1.83165 122.714 1.84352 122.762 1.85483C123.571 2.04592 123.705 2.0776 123.705 2.64456V17.3571C123.705 18.3535 123.613 19.5333 123.545 20.4098C123.515 20.7877 123.49 21.1092 123.479 21.3353C123.404 21.8233 123.29 22.0111 122.8 22.0864L120.536 22.4615V23.5496H129.517V22.4615L126.46 22.0111C125.97 21.9363 125.856 21.748 125.781 21.26C125.705 20.5475 125.554 18.7455 125.554 17.3195ZM146.824 22.9634L148.268 22.6503C148.898 22.5201 148.976 22.494 148.976 22.1282V9.16046C148.976 8.79512 148.898 8.74287 148.294 8.61268L146.824 8.2996V7.54281H157.272C158.007 7.54281 158.979 7.38604 159.373 7.25586L159.845 12.448H159.136C158.821 11.2479 158.349 9.94338 157.824 9.26497C157.246 8.89963 155.724 8.48205 154.069 8.48205H153.833C153.203 8.48205 152.573 8.5343 152.022 8.63881V14.7706H154.935C155.671 14.3269 156.301 13.1525 156.432 12.3435H156.957V18.319H156.432C156.196 17.2492 155.697 16.336 154.935 15.8139H152.022V22.6242C152.109 22.636 152.195 22.6484 152.282 22.6609C152.771 22.7316 153.29 22.8066 154.227 22.8066H154.831C155.855 22.8066 157.483 22.5458 158.217 21.998C158.768 21.3458 159.478 19.806 159.819 18.6321H160.527L159.766 23.7202H146.824V22.9634ZM187.087 18.0819H186.256C186.271 18.6881 186.292 19.3425 186.313 19.9918V19.9921L186.313 19.9925C186.368 21.6683 186.421 23.31 186.363 23.9993H186.952L187.408 23.224C188.238 23.6116 189.471 23.9993 191.507 23.9993C195.07 23.9993 197.722 22.2421 197.722 19.219C197.722 16.5835 195.686 15.4464 194.052 14.6975L191.614 13.5863C190.14 12.9145 189.417 12.1392 189.417 10.7438C189.417 9.09016 190.677 8.10833 192.177 8.10833C193.623 8.10833 194.48 8.80601 195.15 9.45194C195.606 10.1237 196.088 11.3902 196.302 12.4492H197.079L196.918 7.38522H196.356L195.793 8.1342C194.936 7.66938 193.784 7.25586 192.203 7.25586C189.122 7.25586 186.524 8.93537 186.524 11.545C186.524 13.8187 187.944 15.1364 190.355 16.0924L192.043 16.7642C193.516 17.3584 194.641 18.1595 194.641 19.9684C194.641 21.8027 193.409 23.1205 191.212 23.1205C189.631 23.1205 188.774 22.3974 188.158 21.6479C187.622 20.6398 187.301 19.1673 187.087 18.0819ZM161.487 8.53458C161.865 8.65985 162.118 8.74381 162.271 9.1522L167.421 23.9989H168.649L173.354 12.7006L177.483 23.9989H178.685L184.357 9.17833C184.526 8.72187 184.739 8.66333 185.058 8.5756L185.092 8.56618L185.142 8.55217L185.978 8.29135V7.53455H180.881V8.29135L182.136 8.55217C182.841 8.70894 182.972 8.78687 182.815 9.23058L179.104 20.1636L175.157 9.23058C175.027 8.89138 175.079 8.70894 175.575 8.5783L176.751 8.29135V7.53455H170.478V8.29135L171.211 8.52604C171.55 8.63055 171.812 8.73461 171.968 9.1522L172.648 10.8221L169.145 20.2419L165.486 9.09995C165.382 8.76074 165.513 8.70894 166.035 8.5783L167.29 8.29135V7.53455H160.808V8.29135L161.461 8.52604L161.487 8.53458Z" fill="#9FA1A2"/>
<path fill-rule="evenodd" clip-rule="evenodd" d="M2.55437 22.1481L0 22.5235V23.6128H8.93963V22.5235L6.27268 22.1104C5.747 22.035 5.63442 21.5092 5.63442 21.0207C5.63222 20.9976 5.62999 20.9743 5.62773 20.9506C5.55258 20.1653 5.44649 19.0564 5.44649 17.4516V5.31626L14.3112 23.5755H14.5368L23.7402 4.86541V21.3213C23.7402 21.8475 23.5899 21.9224 22.7261 22.1104L20.9602 22.5235V23.6128H31.1777V22.5235L29.1118 22.0727C28.2479 21.8847 28.1353 21.8475 28.1353 21.3213V2.64884C28.1353 2.1603 28.2856 2.08493 29.0364 1.89742L31.14 1.37165V0.319213H24.1533L15.7389 17.3013L7.58777 0.281982H0.450318V1.40888L2.40412 1.85974C2.50894 1.88488 2.60439 1.90675 2.69128 1.92666C3.38251 2.08505 3.53082 2.11903 3.53082 2.68652V17.4893C3.53082 18.7145 3.45528 19.6375 3.39789 20.3388C3.37434 20.6265 3.35385 20.877 3.34289 21.0956C3.26753 21.6218 3.11773 22.0727 2.55437 22.1481ZM32.7208 22.9632L34.1648 22.6501C34.7943 22.5199 34.8732 22.4938 34.8732 22.128V9.16024C34.8732 8.79491 34.7943 8.74266 34.1906 8.61247L32.7208 8.29939V7.5426H43.1692C43.9044 7.5426 44.8752 7.38583 45.2695 7.25564L45.7418 12.4478H45.033C44.7179 11.2477 44.2457 9.94317 43.7208 9.26475C43.143 8.89942 41.6205 8.48183 39.9662 8.48183H39.7301C39.1001 8.48183 38.4701 8.53409 37.9189 8.6386V14.7704H40.8324C41.568 14.3267 42.1975 13.1523 42.3289 12.3433H42.8538V18.3188H42.3289C42.0928 17.2489 41.5938 16.3358 40.8324 15.8137H37.9189V22.624C38.0056 22.6358 38.0911 22.6481 38.1775 22.6606L38.1776 22.6606C38.6668 22.7313 39.1869 22.8064 40.1239 22.8064H40.7277C41.7515 22.8064 43.3795 22.5456 44.1142 21.9978C44.6654 21.3455 45.3742 19.8058 45.7155 18.6319H46.4244L45.6634 23.72H32.7208V22.9632ZM83.7735 7.25564C78.5527 7.25564 74.6703 10.7182 74.6703 15.6532C74.6703 20.0458 77.6872 23.999 83.3799 23.999C85.5571 23.999 87.5776 23.5079 88.6007 23.0426L89.4925 18.2369H88.7579C88.4431 19.3481 87.5776 21.4412 87.0006 22.0095C86.2918 22.5006 84.9806 23.0948 83.485 23.0948C80.3368 23.0948 78.0282 20.02 78.0282 15.498C78.0282 11.8289 79.497 8.08269 83.8519 8.08269C85.5838 8.08269 86.7642 8.7023 87.4463 9.32281C87.9707 10.0205 88.5219 11.8548 88.7579 12.966H89.4663L89.1778 7.41044H88.6266L88.1283 8.05681C86.843 7.48805 85.3737 7.25564 83.7735 7.25564ZM99.9109 17.8693L97.3343 10.9315L94.8898 17.8693H99.9109ZM90.0522 22.9696L91.2354 22.6849C91.5772 22.6071 91.761 22.4516 91.8926 22.0896L97.5709 7.25564H99.0432L104.695 22.1155C104.8 22.3997 105.011 22.6071 105.352 22.7108L106.273 22.9696V23.72H99.6478V22.9696L101.041 22.6849C101.488 22.5812 101.619 22.4261 101.462 22.0118L100.331 19.0084H94.5214L93.4435 22.1155C93.3123 22.5039 93.4961 22.6071 93.8116 22.6849L95.1786 22.9696V23.72H90.0522V22.9696ZM106.579 22.9625L107.987 22.6492C108.613 22.519 108.69 22.4929 108.69 22.1269V9.15279C108.69 8.78728 108.613 8.76114 108.013 8.63089L106.553 8.29152V7.53436H114.138V8.29152L112.392 8.63089C111.818 8.735 111.714 8.81342 111.714 9.15279V21.5793C111.714 22.7538 112.913 22.8056 113.721 22.8056H114.008C115.233 22.8056 116.666 22.4663 117.345 21.9966C117.866 21.344 118.413 20.3259 118.752 19.4642L119.273 18.1072H119.977L118.778 23.7196H106.579V22.9625ZM66.001 22.9625L67.4294 22.6492C68.0526 22.519 68.1306 22.4929 68.1306 22.1269V9.15279C68.1306 8.78728 68.0526 8.76114 67.4554 8.63089L66.001 8.29152V7.53436H73.2723V8.29152L71.8435 8.63089C71.2464 8.76114 71.1428 8.78728 71.1428 9.15279V22.1269C71.1428 22.4929 71.2208 22.519 71.818 22.6492L73.2723 22.9625V23.7196H66.001V22.9625ZM61.382 15.5232C61.382 20.0915 59.0785 22.8588 55.6229 22.8588H55.0995C54.2878 22.8588 53.4499 22.7281 53.0052 22.5717V8.68325C53.3979 8.50071 54.183 8.34387 54.7068 8.34387H55.2563C59.9683 8.34387 61.382 11.8422 61.382 15.5232ZM49.2625 22.6492L47.8226 22.9625V23.7196H56.3305C61.3828 23.7196 64.6025 20.013 64.6025 15.4181C64.6025 10.3274 60.5453 7.53436 55.7023 7.53436H47.8226V8.29109L49.2887 8.60433C49.8907 8.73503 49.9693 8.81301 49.9693 9.15239V22.1273C49.9693 22.4928 49.8907 22.519 49.2625 22.6492Z" fill="#9FA1A2"/>
</svg>
