<svg width="262" height="24" viewBox="0 0 262 24" fill="none" xmlns="http://www.w3.org/2000/svg">
<path fill-rule="evenodd" clip-rule="evenodd" d="M19.344 23.3689H12.544V12.647C12.544 11.5199 11.7325 10.7975 10.7768 10.7975C9.8492 10.7975 8.7285 11.5488 8.7285 12.647V21.0568V23.3689H2.62531V6.28908L0.657715 4.9019C2.90639 4.1505 6.67656 2.53212 8.7285 1.40503V10.364C9.54364 9.35246 11.5357 8.05198 14.0655 8.05198C17.2699 8.05198 18.6472 10.1616 18.6472 12.6759V21.7279C18.6472 22.0001 18.8795 22.5472 19.344 23.3689ZM89.4348 23.3689H82.6347V12.647C82.6347 11.5199 81.8232 10.7975 80.8675 10.7975C79.94 10.7975 78.8192 11.5488 78.8192 12.647V21.0568V23.3689H72.7161V6.28908L70.7485 4.9019C72.9971 4.1505 76.7672 2.53212 78.8192 1.40503V10.364C79.6344 9.35246 81.6264 8.05198 84.1561 8.05198C87.3606 8.05198 88.7378 10.1616 88.7378 12.6759V21.7279C88.7378 22.0001 88.9701 22.5472 89.4348 23.3689ZM34.2082 20.8187V21.8886C32.8551 23.0453 31.3608 23.9996 28.147 23.9996C23.0725 23.9996 19.9714 20.6163 19.9714 16.4521C19.9714 11.4782 23.157 8.09483 27.8368 8.09483C32.4603 8.09483 34.2082 11.2469 34.2082 15.2087H25.7566C26.123 19.7777 28.6826 21.8597 31.0225 21.8597C32.1502 21.8597 33.4189 21.4839 34.2082 20.8187ZM27.548 14.3098C28.9082 14.3098 29.0634 13.9246 29.0634 12.7939C29.0634 11.9269 28.9082 9.78988 27.548 9.78988C26.1879 9.78988 26.0327 11.9269 26.0327 12.7939C26.0327 13.9246 26.1879 14.3098 27.548 14.3098ZM142.752 21.8846V20.8146C141.962 21.4797 140.693 21.8557 139.566 21.8557C137.226 21.8557 134.666 19.7735 134.3 15.2045H142.752C142.752 11.2428 141.003 8.09076 136.381 8.09076C131.7 8.09076 128.515 11.4741 128.515 16.4481C128.515 20.6121 131.616 23.9956 136.69 23.9956C139.905 23.9956 141.399 23.0413 142.752 21.8846ZM137.607 12.7893C137.607 13.9201 137.451 14.3053 136.091 14.3053C134.732 14.3053 134.576 13.9201 134.576 12.7893C134.576 11.9223 134.732 9.78531 136.091 9.78531C137.451 9.78531 137.607 11.9223 137.607 12.7893ZM51.4566 20.6869L52.1316 20.8293C51.8229 22.069 50.9229 23.9996 48.0276 23.9996C45.6101 23.9996 44.9319 22.5249 44.4259 20.9633C44.0042 22.4092 42.3494 23.9996 39.2011 23.9996C36.3901 23.9996 34.8441 22.7562 34.8441 20.4139C34.8441 17.8113 37.3984 15.9027 43.7794 14.0229V11.2758C43.7794 9.85882 43.0203 9.36722 42.1771 9.36722C41.4182 9.36722 40.213 10.1769 40.213 11.4493C40.213 11.8895 40.2721 12.2538 40.3368 12.6522C40.3613 12.8034 40.3866 12.9595 40.4097 13.1265C40.4097 13.9074 39.5103 15.0929 38.1329 15.0929C36.6149 15.0929 35.8841 13.9941 35.8841 12.7216C35.8841 10.6396 37.8237 8.09483 42.9116 8.09483C48.1963 8.09483 49.8829 10.8709 49.8829 13.5314V20.5873C49.8829 21.0211 50.0515 21.4549 50.5294 21.4549C50.951 21.4549 51.2381 21.2168 51.4566 20.6869ZM43.8127 20.1537V14.9141C41.6747 15.7778 40.9347 17.9082 40.9347 19.5492C40.9347 20.8734 41.3459 21.4781 42.3326 21.4781C43.1959 21.4781 43.8127 20.931 43.8127 20.1537ZM60.1963 23.3689H53.176V21.0568V6.28908L51.3056 4.9019C53.4433 4.1505 57.3713 2.53212 59.322 1.40503V21.7279C59.322 21.9874 59.6135 22.5345 60.1963 23.3689ZM91.6443 23.3689H98.6645C98.0817 22.5345 97.7903 21.9874 97.7903 21.7279V1.40503C95.8396 2.53212 91.9116 4.1505 89.7738 4.9019L91.6443 6.28908V21.0568V23.3689ZM70.7229 21.5988V22.6692C69.7 23.537 68.0041 23.9999 66.1736 23.9999C63.1587 23.9999 62.1087 21.7724 62.1087 19.8922V9.84152H60.6548L68.3002 3.1721V8.6683H70.7229V9.84152H68.3002V20.731C68.3002 21.5988 68.8116 22.0038 69.4308 22.0038C69.8077 22.0038 70.4807 21.8302 70.7229 21.5988ZM101.376 4.63177C101.376 6.42752 102.761 7.85851 104.498 7.85851C106.236 7.85851 107.62 6.42752 107.62 4.63177C107.62 2.83602 106.236 1.40503 104.498 1.40503C102.761 1.40503 101.376 2.83602 101.376 4.63177ZM108.607 23.3689H101.441V12.6151L99.469 11.2238C101.723 10.4701 105.502 8.84692 107.559 7.71647V21.7279C107.559 21.9976 107.908 22.5447 108.607 23.3689ZM121.036 23.3689H128.056C127.445 22.5398 127.139 21.9927 127.139 21.7279V12.6441C127.139 10.1223 125.762 8.00633 122.557 8.00633C120.028 8.00633 118.072 9.33968 117.06 10.673V7.71647C115.008 8.84692 111.398 10.4701 109.15 11.2238L111.117 12.6151V21.05V23.3689H117.22V21.05V12.6151C117.22 11.5136 118.341 10.76 119.269 10.76C120.224 10.76 121.036 11.4846 121.036 12.6151V23.3689Z" fill="#9FA1A2"/>
<path fill-rule="evenodd" clip-rule="evenodd" d="M169.443 4.76549C170.724 4.76549 171.749 3.71379 171.749 2.39917C171.749 1.08456 170.724 0 169.443 0C168.195 0 167.138 1.08456 167.138 2.39917C167.138 3.71379 168.195 4.76549 169.443 4.76549ZM171.365 22.9728V7.09878H167.522V22.9728H171.365ZM157.027 13.7378V22.9729H152.736V1.05175H164.969V4.89699H157.027V9.9254H164.745V13.7378H157.027ZM178.465 22.9728V12.16C179.009 11.207 180.002 10.1881 181.283 10.1881C182.564 10.1881 183.301 10.8454 183.301 12.5215V22.9728H187.142V11.0426C187.142 8.4134 185.863 6.7044 183.012 6.7044C181.027 6.7044 179.298 7.92042 178.465 9.1693V7.09878H174.622V22.9728H178.465ZM195.364 23.3673C196.837 23.3673 198.31 22.5457 199.271 20.9681V22.9729H203.114V1.05175H199.271V9.10376C198.31 7.46049 196.837 6.70459 195.364 6.70459C191.873 6.70459 189.633 9.95826 189.633 15.0524C189.633 20.2451 191.873 23.3673 195.364 23.3673ZM196.582 19.8836C194.628 19.8836 193.603 17.8131 193.603 15.0524C193.603 12.2589 194.628 10.1883 196.582 10.1883C197.637 10.1883 198.758 11.01 199.271 12.0617V18.0103C198.758 19.0619 197.637 19.8836 196.582 19.8836ZM214.633 23.3673C218.86 23.3673 220.813 20.4752 221.87 17.846L218.316 16.2684C217.707 18.076 216.458 19.4563 214.633 19.4563C211.815 19.4563 210.085 16.3342 210.085 12.0288C210.085 7.72345 211.815 4.60123 214.633 4.60123C216.395 4.60123 217.643 5.81725 218.284 7.55912L221.837 5.94872C220.749 3.41808 218.795 0.69026 214.633 0.69026C209.157 0.69026 205.667 5.39001 205.667 12.0288C205.667 18.6677 209.157 23.3673 214.633 23.3673ZM227.978 23.3672C229.547 23.3672 231.18 22.6441 232.045 21.3952V22.9728H235.919V12.3244C235.919 8.24908 233.262 6.7044 229.899 6.7044C227.914 6.7044 225.576 7.39457 223.943 9.00497L225.384 11.6999C226.537 10.5496 227.849 9.99093 229.195 9.99093C231.02 9.99093 232.045 11.0426 232.045 12.7516V14.855C231.212 13.6062 229.579 12.9817 227.978 12.9817C225.544 12.9817 223.206 14.625 223.206 18.1087C223.206 21.4938 225.544 23.3672 227.978 23.3672ZM229.451 20.705C228.01 20.705 227.049 19.6861 227.049 18.1743C227.049 16.6625 228.01 15.6108 229.451 15.6108C230.508 15.6108 231.532 16.2023 232.045 17.1555V19.1932C231.532 20.1791 230.508 20.705 229.451 20.705ZM243.02 22.9728V12.3901C243.661 11.3384 245.102 10.4839 246.318 10.4839C246.67 10.4839 246.991 10.5168 247.247 10.5825V6.73724C245.582 6.73724 243.885 7.85466 243.02 9.30074V7.09876H239.178V22.9728H243.02ZM255.628 23.3672C257.71 23.3672 259.791 22.5455 261.168 21.0008L259.407 18.6345C258.543 19.6205 257.229 20.1792 256.045 20.1792C253.707 20.1792 252.459 18.4702 252.298 16.301H262V15.1836C262 10.2539 259.599 6.7044 255.341 6.7044C251.049 6.7044 248.423 10.4182 248.423 15.0194C248.423 20.0149 251.274 23.3672 255.628 23.3672ZM258.286 13.6063H252.298C252.362 11.963 253.13 9.89248 255.276 9.89248C257.517 9.89248 258.223 11.963 258.286 13.6063Z" fill="#9FA1A2"/>
</svg>
